<!DOCTYPE svg PUBLIC "-//W3C//DTD SVG 20010904//EN" "http://www.w3.org/TR/2001/REC-SVG-20010904/DTD/svg10.dtd">
<svg version="1.0" xmlns="http://www.w3.org/2000/svg" width="293px" height="181px" viewBox="0 0 2930 1810" preserveAspectRatio="xMidYMid meet">
<g id="layer101" fill="#1b083e" stroke="none">
 <path d="M1295 1746 c-101 -36 -261 -108 -317 -143 -21 -13 -40 -23 -44 -23 -10 0 -157 -101 -240 -165 -78 -62 -259 -234 -339 -325 -83 -93 -275 -348 -275 -365 0 -3 -15 -27 -34 -53 -39 -56 -53 -92 -35 -92 16 0 174 64 273 111 46 21 91 39 100 39 15 0 16 -3 3 -27 -45 -88 -147 -331 -147 -349 0 -19 -1 -19 68 20 61 35 82 49 193 128 37 27 69 48 72 48 12 0 16 -32 6 -58 -26 -65 -84 -331 -75 -340 5 -4 74 58 184 163 51 50 100 91 108 93 12 3 13 -8 9 -60 -22 -254 -23 -318 -9 -318 8 0 60 64 132 160 39 52 77 104 85 115 23 31 39 7 43 -67 2 -34 8 -100 15 -145 10 -77 13 -83 35 -83 17 0 29 10 44 38 12 20 27 48 35 62 8 14 24 48 36 75 43 101 48 111 66 128 10 9 23 13 29 9 12 -8 34 -77 64 -202 22 -90 38 -113 80 -108 18 2 26 10 28 28 2 14 7 34 12 45 5 11 20 63 32 115 13 52 29 104 35 115 11 19 12 19 31 2 11 -10 23 -29 26 -43 4 -13 11 -24 16 -24 6 0 10 -8 10 -17 0 -10 7 -29 15 -43 7 -14 25 -47 40 -75 30 -59 64 -102 84 -107 19 -4 41 105 46 220 4 127 9 127 105 -8 75 -107 146 -187 157 -177 10 11 7 149 -5 237 -9 64 -6 130 7 130 3 -1 64 -57 136 -125 71 -69 136 -125 143 -125 8 0 11 9 8 22 -3 13 -10 52 -16 88 -12 68 -35 156 -52 201 -5 15 -8 39 -6 53 l3 27 50 -35 c80 -54 256 -167 271 -173 10 -4 14 3 14 20 0 14 -4 28 -9 31 -5 3 -12 18 -15 32 -4 14 -16 47 -28 73 -11 25 -27 62 -35 81 -9 19 -28 62 -44 94 -16 33 -27 61 -25 63 2 2 41 -14 87 -36 120 -56 279 -121 295 -121 21 0 17 14 -24 82 -57 92 -206 303 -232 328 -3 3 -23 28 -44 55 -115 148 -408 404 -588 517 -77 47 -245 128 -355 170 -148 56 -215 59 -338 14z"/>
 </g>
<g id="layer102" fill="#2d098e" stroke="none">
 <path d="M1295 1746 c-101 -36 -261 -108 -317 -143 -21 -13 -40 -23 -44 -23 -10 0 -157 -101 -240 -165 -78 -62 -259 -234 -339 -325 -83 -93 -275 -348 -275 -365 0 -3 -15 -27 -34 -53 -39 -56 -53 -92 -35 -92 16 0 174 64 273 111 46 21 91 39 100 39 15 0 16 -3 3 -27 -45 -88 -147 -331 -147 -349 0 -19 -1 -19 68 20 61 35 82 49 193 128 37 27 69 48 72 48 12 0 16 -32 6 -58 -26 -65 -84 -331 -75 -340 5 -4 74 58 184 163 51 50 100 91 108 93 12 3 13 -8 9 -60 -22 -254 -23 -318 -9 -318 8 0 60 64 132 160 39 52 77 104 85 115 23 31 39 7 43 -67 2 -34 8 -100 15 -145 10 -77 13 -83 35 -83 17 0 29 10 44 38 12 20 27 48 35 62 8 14 24 48 36 75 43 101 48 111 66 128 10 9 23 13 29 9 12 -8 34 -77 64 -202 22 -90 38 -113 80 -108 18 2 26 10 28 28 2 14 7 34 12 45 5 11 20 63 32 115 13 52 29 104 35 115 11 19 12 19 31 2 11 -10 23 -29 26 -43 4 -13 11 -24 16 -24 6 0 10 -8 10 -17 0 -10 7 -29 15 -43 7 -14 25 -47 40 -75 30 -59 64 -102 84 -107 19 -4 41 105 46 220 4 127 9 127 105 -8 75 -107 146 -187 157 -177 10 11 7 149 -5 237 -9 64 -6 130 7 130 3 -1 64 -57 136 -125 71 -69 136 -125 143 -125 8 0 11 9 8 22 -3 13 -10 52 -16 88 -12 68 -35 156 -52 201 -5 15 -8 39 -6 53 l3 27 50 -35 c80 -54 256 -167 271 -173 10 -4 14 3 14 20 0 14 -4 28 -9 31 -5 3 -12 18 -15 32 -4 14 -16 47 -28 73 -11 25 -27 62 -35 81 -9 19 -28 62 -44 94 -16 33 -27 61 -25 63 2 2 41 -14 87 -36 120 -56 279 -121 295 -121 21 0 17 14 -24 82 -57 92 -206 303 -232 328 -3 3 -23 28 -44 55 -115 148 -408 404 -588 517 -77 47 -245 128 -355 170 -148 56 -215 59 -338 14z m196 -140 c4 -33 11 -76 15 -94 6 -29 2 -37 -30 -67 -31 -28 -36 -39 -36 -79 0 -33 -4 -46 -14 -46 -19 0 -27 47 -27 171 -1 88 2 113 19 146 15 28 18 43 10 51 -5 5 -7 16 -3 22 5 8 15 4 33 -15 18 -20 27 -44 33 -89z"/>
 </g>
<g id="layer103" fill="#412ae8" stroke="none">
 <path d="M1295 1746 c-100 -36 -260 -108 -317 -143 -21 -13 -40 -23 -44 -23 -10 0 -157 -101 -240 -165 -78 -62 -259 -234 -339 -325 -83 -93 -275 -348 -275 -365 0 -3 -15 -27 -34 -53 -39 -56 -53 -92 -35 -92 16 0 174 64 273 111 46 21 91 39 100 39 15 0 16 -3 3 -27 -45 -88 -147 -331 -147 -349 0 -19 -1 -19 68 20 61 35 82 49 193 128 37 27 69 48 72 48 12 0 16 -32 6 -58 -26 -65 -84 -331 -75 -340 5 -4 74 58 184 163 51 50 100 91 108 93 12 3 13 -8 9 -60 -22 -254 -23 -318 -9 -318 8 0 60 64 132 160 39 52 77 104 85 115 23 31 39 7 43 -67 2 -34 8 -100 15 -145 10 -77 13 -83 35 -83 17 0 29 10 44 38 12 20 27 48 35 62 8 14 24 48 36 75 49 114 67 145 87 145 14 0 23 -15 33 -54 4 -17 15 -60 24 -96 9 -36 21 -84 27 -108 18 -72 87 -87 100 -22 7 33 57 218 73 268 l8 23 22 -21 c13 -12 26 -33 29 -46 4 -13 11 -24 16 -24 6 0 10 -8 10 -17 0 -10 7 -29 15 -43 8 -14 22 -41 31 -60 27 -57 76 -120 94 -120 21 0 40 94 45 223 2 49 6 92 10 95 8 8 45 -35 95 -108 19 -29 45 -64 57 -79 74 -87 92 -105 100 -98 10 11 7 149 -5 237 -9 64 -6 130 7 130 3 -1 64 -57 136 -125 71 -69 136 -125 143 -125 8 0 11 9 8 22 -3 13 -10 52 -16 88 -12 68 -35 156 -52 201 -5 15 -8 39 -6 53 l3 27 50 -35 c80 -54 256 -167 271 -173 10 -4 14 3 14 20 0 14 -4 28 -9 31 -5 3 -12 18 -15 32 -4 14 -16 47 -28 73 -11 25 -27 62 -35 81 -9 19 -28 62 -44 94 -16 33 -27 61 -25 63 2 2 41 -14 87 -36 120 -56 279 -121 295 -121 21 0 17 14 -24 82 -57 92 -206 303 -232 328 -3 3 -23 28 -44 55 -115 148 -408 404 -588 517 -151 93 -518 244 -518 212 0 -4 11 -21 23 -38 27 -35 158 -297 183 -366 46 -127 82 -235 79 -238 -2 -2 2 -25 9 -50 7 -26 14 -58 14 -72 1 -14 9 -44 18 -68 11 -30 13 -47 6 -54 -15 -15 -52 1 -52 22 0 10 -14 32 -30 49 -17 16 -37 45 -44 63 -14 33 -14 33 -20 8 -3 -14 -8 -77 -10 -140 -2 -63 -9 -146 -14 -185 -6 -38 -15 -108 -21 -155 -6 -47 -14 -97 -17 -113 -6 -30 -24 -37 -24 -9 0 9 -14 40 -30 67 -16 28 -30 59 -30 69 0 26 -22 86 -32 86 -4 0 -10 16 -14 35 -11 61 -47 41 -57 -31 -2 -23 -11 -56 -20 -75 -36 -82 -57 -139 -57 -153 0 -9 -7 -16 -15 -16 -8 0 -15 3 -15 8 0 24 -41 304 -49 337 -6 22 -11 87 -12 145 0 58 -4 116 -9 130 l-7 25 -12 -28 c-6 -16 -11 -35 -11 -43 0 -8 -4 -14 -9 -14 -5 0 -12 -11 -15 -25 -4 -14 -13 -25 -21 -25 -8 0 -17 -11 -21 -25 -6 -23 -40 -52 -50 -42 -3 3 2 37 21 122 2 11 11 54 18 95 21 108 52 218 75 270 11 25 26 60 32 78 7 17 16 32 21 32 5 0 9 6 9 14 0 17 125 264 145 286 36 39 10 38 -110 -4z m515 -907 c0 -17 -4 -28 -10 -24 -5 3 -10 17 -10 31 0 13 5 24 10 24 6 0 10 -14 10 -31z"/>
 <path d="M1660 1151 c0 -12 5 -21 10 -21 6 0 10 6 10 14 0 8 -4 18 -10 21 -5 3 -10 -3 -10 -14z"/>
 </g>
<g id="layer104" fill="#5564ef" stroke="none">
 <path d="M1295 1746 c-100 -36 -260 -108 -317 -143 -21 -13 -40 -23 -44 -23 -10 0 -157 -101 -240 -165 -78 -62 -259 -234 -339 -325 -83 -93 -275 -348 -275 -365 0 -3 -15 -27 -34 -53 -39 -56 -53 -92 -35 -92 16 0 174 64 273 111 46 21 91 39 100 39 15 0 16 -3 3 -27 -45 -88 -147 -331 -147 -349 0 -19 -1 -19 68 20 61 35 82 49 193 128 37 27 69 48 72 48 12 0 16 -32 6 -58 -26 -65 -84 -331 -75 -340 5 -4 74 58 184 163 51 50 100 91 108 93 12 3 13 -8 9 -60 -22 -255 -23 -318 -8 -318 8 0 52 55 125 154 87 119 115 149 128 141 7 -4 6 3 0 20 -6 15 -10 100 -10 190 0 135 -3 166 -16 179 -21 22 -34 20 -34 -4 0 -12 -9 -38 -20 -60 -11 -22 -20 -44 -20 -50 0 -5 -8 -19 -17 -29 -10 -11 -26 -31 -36 -45 -10 -14 -25 -26 -34 -26 -14 0 -15 11 -10 77 3 43 10 92 17 108 7 17 16 39 20 50 9 21 19 80 26 154 3 24 11 55 18 70 8 15 17 44 21 65 4 20 18 47 30 59 14 14 25 39 28 68 6 43 50 147 68 159 5 3 17 26 28 52 12 25 28 51 37 59 9 7 23 30 31 51 8 21 23 44 33 51 9 6 23 24 31 38 8 15 34 43 57 63 24 20 41 36 37 36 -4 0 14 24 39 54 25 29 46 56 46 60 0 11 -34 4 -125 -28z"/>
 <path d="M1470 1774 c0 -9 52 -78 62 -82 4 -2 8 -10 8 -17 0 -8 8 -16 18 -20 19 -7 121 -122 155 -176 41 -65 46 -74 56 -94 5 -12 16 -27 25 -34 9 -7 16 -19 16 -25 0 -6 18 -47 40 -90 21 -44 42 -100 46 -125 3 -25 13 -51 21 -58 29 -22 87 -251 85 -328 -1 -16 6 -58 14 -93 19 -76 13 -113 -16 -105 -11 3 -20 9 -20 15 0 13 -39 64 -86 113 l-41 42 -2 -170 c-1 -93 -4 -173 -6 -177 -3 -5 10 -24 28 -43 17 -19 48 -58 67 -87 19 -29 45 -64 57 -79 74 -87 92 -105 100 -98 10 11 7 149 -5 237 -9 64 -6 130 7 130 3 -1 64 -57 136 -125 71 -69 136 -125 143 -125 8 0 11 9 8 23 -3 12 -10 51 -16 87 -12 68 -35 156 -52 201 -5 15 -8 39 -6 53 l3 27 50 -35 c80 -54 256 -167 271 -173 10 -4 14 3 14 20 0 14 -4 28 -9 31 -5 3 -12 18 -15 32 -4 14 -16 47 -28 73 -11 25 -27 62 -35 81 -9 19 -28 62 -44 94 -16 33 -27 61 -25 63 2 2 41 -14 87 -36 120 -56 279 -121 295 -121 21 0 17 14 -24 82 -57 92 -206 303 -232 328 -3 3 -23 28 -44 55 -115 148 -408 404 -588 517 -151 93 -518 244 -518 212z"/>
 <path d="M1244 295 c-10 -40 1 -51 18 -18 9 18 13 34 10 37 -11 12 -22 5 -28 -19z"/>
 <path d="M1059 294 c-4 -9 -4 -21 -1 -117 3 -72 22 -48 21 26 0 60 -11 110 -20 91z"/>
 <path d="M1827 263 c-10 -10 -8 -73 2 -73 6 0 12 80 5 80 0 0 -4 -3 -7 -7z"/>
 <path d="M1650 233 c0 -10 7 -29 15 -43 8 -14 22 -41 31 -60 26 -56 76 -120 93 -120 10 0 12 3 5 8 -31 22 -124 176 -124 206 0 8 -4 18 -10 21 -5 3 -10 -2 -10 -12z"/>
 <path d="M1218 215 c-10 -13 -18 -34 -18 -47 1 -19 4 -16 21 17 23 46 21 63 -3 30z"/>
 <path d="M1800 102 c0 -26 4 -41 10 -37 13 8 13 45 0 65 -7 11 -10 3 -10 -28z"/>
 <path d="M1077 113 c-11 -10 -8 -51 3 -58 6 -4 10 8 10 29 0 37 -2 41 -13 29z"/>
 <path d="M1138 59 c-6 -17 -20 -34 -32 -39 -21 -9 -21 -9 1 -9 17 -1 28 10 43 39 11 22 16 40 10 40 -6 0 -16 -14 -22 -31z"/>
 </g>
<g id="layer105" fill="#74adf4" stroke="none">
 <path d="M1516 1748 c16 -13 35 -27 42 -33 7 -5 25 -22 39 -37 15 -16 31 -28 37 -28 11 0 105 -94 203 -203 52 -57 228 -322 266 -399 15 -32 31 -58 36 -58 4 0 8 -14 9 -31 0 -17 5 -36 10 -42 5 -7 22 -43 37 -82 15 -38 33 -83 40 -100 21 -48 45 -127 45 -147 0 -11 4 -17 9 -13 5 3 16 -3 23 -13 15 -20 59 -52 206 -147 130 -83 132 -84 132 -52 0 14 -4 28 -9 31 -5 3 -12 18 -15 32 -4 14 -16 47 -28 73 -11 25 -27 62 -35 81 -9 19 -28 62 -44 94 -16 33 -27 61 -25 63 2 2 41 -14 87 -36 120 -56 279 -121 295 -121 21 0 17 14 -24 82 -57 92 -206 303 -232 328 -3 3 -23 28 -44 55 -113 145 -511 495 -563 495 -8 0 -22 9 -31 20 -36 41 -415 210 -473 210 -20 0 -19 -2 7 -22z"/>
 <path d="M1270 1736 c-77 -26 -240 -101 -292 -133 -21 -13 -40 -23 -44 -23 -10 0 -157 -101 -240 -165 -78 -62 -259 -234 -339 -325 -83 -93 -275 -348 -275 -365 0 -3 -15 -27 -34 -53 -39 -56 -53 -92 -35 -92 16 0 174 64 273 111 46 21 91 39 100 39 16 0 16 -3 3 -27 -20 -38 -40 -86 -41 -98 -1 -5 -20 -48 -42 -95 -48 -99 -70 -157 -62 -165 3 -3 32 10 65 28 62 36 83 49 194 129 37 27 71 48 77 48 10 0 23 28 42 95 11 37 21 64 48 125 37 85 72 176 72 187 0 14 46 101 66 124 8 8 14 18 14 22 0 7 72 130 81 137 3 3 18 23 33 45 64 95 122 168 209 259 20 21 37 43 37 48 0 4 5 8 11 8 5 0 31 19 55 43 25 23 53 46 62 51 36 20 60 67 34 66 -4 -1 -36 -11 -72 -24z"/>
 <path d="M2266 315 c4 -8 13 -15 21 -15 13 0 13 3 3 15 -7 8 -16 15 -21 15 -5 0 -6 -7 -3 -15z"/>
 </g>

</svg>